<svg id="Capa_1" data-name="Capa 1" xmlns="http://www.w3.org/2000/svg" viewBox="0 0 107.8 109.2"><defs><style>.cls-1{fill:#bcbcbc;}.cls-2{fill:#ff6262;}.cls-3{fill:#727270;}.cls-4{fill:#fafafa;}</style></defs><title>entrega-escrito</title><path class="cls-1" d="M107.58,73.14H80.64a2.45,2.45,0,0,0,0,4.85h26.94a2.45,2.45,0,0,0,0-4.85Zm0-10H80.64a2.45,2.45,0,0,0,0,4.85h26.94a2.45,2.45,0,0,0,0-4.85Zm0-10H80.64a2.45,2.45,0,0,0,0,4.84h26.94a2.44,2.44,0,0,0,0-4.84Zm15-17.23-29.12-29A2.87,2.87,0,0,0,91.36,6H59.85A12.8,12.8,0,0,0,47.06,18.76V30.7l6,9.58-.19-21.52a6.94,6.94,0,0,1,6.94-6.94H87.63V28.33a12.79,12.79,0,0,0,12.78,12.8h17.15v44.1a7,7,0,0,1-7,7H85.7V98h24.9a12.82,12.82,0,0,0,12.79-12.8V37.89A2.87,2.87,0,0,0,122.54,35.83Zm-22.13-.54a7,7,0,0,1-7-7V15.1l20.27,20.19Zm-36.92-11H77.72a2.42,2.42,0,1,0,0-4.84H63.49a2.42,2.42,0,0,0,0,4.84Zm0,10H77.72a2.42,2.42,0,1,0,0-4.84H63.49a2.42,2.42,0,1,0,0,4.84Z" transform="translate(-15.59 -5.98)"/><path class="cls-2" d="M40.28,31.16l.06.09s0,0,0,0L35.2,23.46a4.21,4.21,0,0,0-5.83-1.2L17.74,29.93a4.22,4.22,0,0,0-1.2,5.82l5.08,7.71Z" transform="translate(-15.59 -5.98)"/><path class="cls-3" d="M78.52,89.12,43.61,36.24,25,48.53l34.84,52.92ZM41.9,44a1.88,1.88,0,0,1,2.59.53L70.38,83.87a1.85,1.85,0,0,1-.52,2.58,1.82,1.82,0,0,1-.85.3,1.84,1.84,0,0,1-1.74-.83l-25.9-39.3A1.87,1.87,0,0,1,41.9,44Z" transform="translate(-15.59 -5.98)"/><path class="cls-2" d="M82.22,113.14,79.71,96.88,66.4,105.65l14,8.68C81.72,115.23,82.53,114.7,82.22,113.14Z" transform="translate(-15.59 -5.98)"/><circle class="cls-3" cx="15.6" cy="93.6" r="15.6"/><path class="cls-4" d="M30.36,107.83a15.53,15.53,0,0,1-1.79-.19,13.42,13.42,0,0,1-1.65-.38,6.77,6.77,0,0,1-1.28-.53,1.58,1.58,0,0,1-.68-.6,1.47,1.47,0,0,1-.17-.65,1.54,1.54,0,0,1,.09-.52,1.43,1.43,0,0,1,.26-.45,1.27,1.27,0,0,1,.41-.31,1.14,1.14,0,0,1,.55-.13,2.1,2.1,0,0,1,.68.13c.23.09.49.17.77.25a13.31,13.31,0,0,0,1.58.36A12.39,12.39,0,0,0,31,105a4.75,4.75,0,0,0,1-.1,3.15,3.15,0,0,0,.91-.31,2.11,2.11,0,0,0,.65-.57,1.43,1.43,0,0,0,.25-.83,1.39,1.39,0,0,0-.19-.75,1.94,1.94,0,0,0-.51-.56,3.77,3.77,0,0,0-.75-.41c-.29-.12-.59-.23-.91-.33l-.66-.19-.46-.14-.48-.14-.94-.28-.74-.24-.55-.2a4.74,4.74,0,0,1-2.25-1.53,4,4,0,0,1-.76-2.53A4.15,4.15,0,0,1,25,94.08a4.33,4.33,0,0,1,1.12-1.45,5.92,5.92,0,0,1,1.81-1,9.09,9.09,0,0,1,2.44-.49v-.85a.91.91,0,0,1,.21-.65.73.73,0,0,1,.53-.22.79.79,0,0,1,.52.2.69.69,0,0,1,.23.55v1q.87,0,1.77.15a8.45,8.45,0,0,1,1.64.35,3.39,3.39,0,0,1,1.21.65,1.29,1.29,0,0,1,.47,1,1.19,1.19,0,0,1-.36.87,1.35,1.35,0,0,1-1,.35h-.23l-.6-.12-.64-.13-.79-.13c-.3,0-.67-.09-1.09-.14l-.53,0a4.52,4.52,0,0,0-.52,0,5.5,5.5,0,0,0-1,.09,3.7,3.7,0,0,0-.87.28,1.8,1.8,0,0,0-.62.49,1.09,1.09,0,0,0-.24.71,1.36,1.36,0,0,0,.25.83,2.14,2.14,0,0,0,.66.6,4.43,4.43,0,0,0,.93.42c.35.12.69.22,1,.32l1.13.31c.76.24,1.46.48,2.11.73a7.06,7.06,0,0,1,1.66.9,3.71,3.71,0,0,1,1.09,1.28,4,4,0,0,1,.39,1.85,4.85,4.85,0,0,1-.41,2,4.6,4.6,0,0,1-1.2,1.55,6,6,0,0,1-1.87,1,9,9,0,0,1-2.44.48v.93a1.47,1.47,0,0,1,0,.36,1,1,0,0,1-.11.31.63.63,0,0,1-.23.23.71.71,0,0,1-.38.09.79.79,0,0,1-.51-.18.68.68,0,0,1-.22-.56Z" transform="translate(-15.59 -5.98)"/></svg>