<svg xmlns="http://www.w3.org/2000/svg" viewBox="0 0 110.16 114.92"><defs><style>.cls-1,.cls-4{fill:#ff6262;}.cls-1,.cls-2{fill-rule:evenodd;}.cls-2{fill:#bcbcbc;}.cls-3{fill:#727270;}</style></defs><title>historial</title><g id="Capa_3" data-name="Capa 3"><path class="cls-1" d="M110.62,79.2H97.21a4.45,4.45,0,1,1,0-8.88h13.41a4.44,4.44,0,1,1,0,8.88Zm13.95-10.87a15.07,15.07,0,0,0-1.45-6.52c-.18-.55-.18-1.09-.36-1.63L112.44,34.82v-.18C109,24,103.74,14.17,90.69,14.17H74.94a24.62,24.62,0,0,1,.9,5.25,13.77,13.77,0,0,0-.18,2.72h15c6.89,0,10.51,3.8,14.13,14.85l7.43,15.22a18.88,18.88,0,0,0-8-1.45H65.7V72.68H82a2.82,2.82,0,1,1,0,5.61H65.7v15.4H99.93v11.59a6.35,6.35,0,0,0,6.34,6.52h12.14a6.43,6.43,0,0,0,6.16-6.52V81.91a4.72,4.72,0,0,0-.55-2.17,11.19,11.19,0,0,0,.55-3.44Z" transform="translate(-14.41 -3.12)"/><path class="cls-2" d="M71.81,22h0A21.84,21.84,0,0,0,60.94,3.12V20.51L50.25,26.67,39.38,20.51V3.12A21.84,21.84,0,0,0,28.52,22a21.26,21.26,0,0,0,12,19.2V107.9a10.77,10.77,0,0,0,2.9,7.24,10.75,10.75,0,0,0,7.24,2.9A10.42,10.42,0,0,0,60.94,107.9l-.19-67.1A21.42,21.42,0,0,0,71.81,22Z" transform="translate(-14.41 -3.12)"/><path class="cls-3" d="M31,44.05a2.46,2.46,0,0,1,.25,3.47l-8.07,9.11a2.47,2.47,0,0,1-3.47.25l-4.42-6a2.46,2.46,0,0,1,3.22-3.72l3,4.09,6-6.93A2.47,2.47,0,0,1,31,44.05Z" transform="translate(-14.41 -3.12)"/><path class="cls-3" d="M31,65.37a2.46,2.46,0,0,1,.25,3.47L23.15,78a2.46,2.46,0,0,1-3.47.25l-4.42-6a2.46,2.46,0,0,1,3.22-3.72l3,4.09,6-6.93A2.47,2.47,0,0,1,31,65.37Z" transform="translate(-14.41 -3.12)"/><path class="cls-4" d="M31,88.63a2.46,2.46,0,0,1,.25,3.47l-8.07,9.11a2.46,2.46,0,0,1-3.47.25l-4.42-6a2.46,2.46,0,0,1,3.22-3.72l3,4.09,6-6.93A2.47,2.47,0,0,1,31,88.63Z" transform="translate(-14.41 -3.12)"/></g></svg>