<svg xmlns="http://www.w3.org/2000/svg" viewBox="0 0 135.15 106.71"><defs><style>.cls-1,.cls-3{fill:#bcbcbc;}.cls-2,.cls-5{fill:#ff6262;}.cls-3,.cls-4,.cls-5{fill-rule:evenodd;}.cls-4{fill:#727270;}</style></defs><title>limpio-ordenado</title><g id="Capa_2" data-name="Capa 2"><path class="cls-1" d="M13.3,45.23h0a1.64,1.64,0,0,1,1.85,1.56V74.13a1.86,1.86,0,0,1-1.85,1.71,1.73,1.73,0,0,1-1.71-1.71V46.79a1.61,1.61,0,0,1,1.71-1.56ZM21.47,11.4h0L19.7,18.1c-.59,2.56-1.18,3.55-3.74,3.74a8.48,8.48,0,0,1-6.31-1.57c-2-1.19-2-2.76-1.57-4.34l2.56-7.69a3.27,3.27,0,0,0-2,.2C5.71,11,1.38,16.72,2,21.84A7.09,7.09,0,0,0,4.13,26c1.78,4.34,4.14,7.4,4.14,12.52V88.72c0,3-1.44,5.56-2.42,9.31,1.38-2,4.59-3.32,7.15-3.32A9.69,9.69,0,0,1,20.24,98c-1.18-3.75-2.51-6.35-2.51-9.31V38.5c0-5.12,1.19-6.21,4.14-10.35-.2.2-.4.2-.59.39a7.11,7.11,0,0,0,2.17-2.76,15,15,0,0,0-.59-13.39c-.2-.6-.6-.8-1.39-1ZM17.7,106h0a1.75,1.75,0,0,0-1.17,2.19,1.64,1.64,0,0,0-2.19,1.31,1.68,1.68,0,0,0-2.48,0,1.73,1.73,0,0,0-2.34-1.31A1.64,1.64,0,0,0,8.35,106a1.83,1.83,0,0,0,0-2.63,1.7,1.7,0,0,0,1.32-2.05A1.73,1.73,0,0,0,11.86,100a1.68,1.68,0,0,0,2.48,0,1.73,1.73,0,0,0,2.19,1.31,1.6,1.6,0,0,0,1.32,2.05A1.86,1.86,0,0,0,17.7,106ZM13,95.44h0a9.31,9.31,0,0,0-9.24,9.25A9.17,9.17,0,0,0,13,113.93a9.35,9.35,0,0,0,9.46-9.24A9.5,9.5,0,0,0,13,95.44Z" transform="translate(-1.91 -7.23)"/><path class="cls-2" d="M50,20.27h0c0,.35-.17,1.4-.34,1.4-.17.18-1.4.36-1.74.72-.52.35-.87.88-1,.88s-1.4-.34-1.75-.16c-.35,0-1.22.19-1.39.19-.35,0-.71-.52-1.24-.86s-.7-.69-1-.69c-.18,0-.7,0-.88-.16A15.8,15.8,0,0,0,40,20a6.17,6.17,0,0,0-.88-1,3.38,3.38,0,0,0,.34-1.23c.17-.7-.19-1.74,0-1.74,0-.18.86-.88.86-1.23a5.81,5.81,0,0,0,.51-1.58c.35-.35,1.57-.54,1.74-.72.35-.18.86-.88,1.21-.88.52-.18,1.06.33,1.58.33a4,4,0,0,1,1.39-.36c.35,0,.53.69,1.41,1,.53.35,1.23.34,1.4.51a4.9,4.9,0,0,0,.54,1.39c.36.7.88.87.88,1a6.5,6.5,0,0,1-.15,1.93L51.18,19,50,20.27Zm-2.21,82.28h0c0,.16.33,1,.33,1.11,0,.31.48.63.48.79.17.31-.15.79-.15,1l.18,1.59c0,.16-.63.64-.79.8a8,8,0,0,1-.46,1.12,3.73,3.73,0,0,1-1.27.33c-.16,0-.47.8-.79.8a1.71,1.71,0,0,1-.8-.31,4.29,4.29,0,0,0-1.43,0c-.16,0-.47.16-.63,0-.16-.31-.33-.79-.81-.94a3.9,3.9,0,0,1-1.11-.47,2.38,2.38,0,0,0-.17-1c0-.32-.8-1-.8-1s.31-.48.31-.79-.33-1.11-.17-1.27c.15-.32.78-.65.78-1a5.53,5.53,0,0,0,.46-1.12,4.16,4.16,0,0,0,1.27-.49c.16,0,.79-.64.95-.64s1.11.3,1.27.3a4,4,0,0,1,1.27-.17c.16,0,.65.79.81.94a3,3,0,0,1,1.27.31Zm2.9-93.16a16.26,16.26,0,0,0-2.81-1.76,9.12,9.12,0,0,0-1.59-.38,7.68,7.68,0,0,0-3.77.63,15.51,15.51,0,0,0-3.17,1.63A8.88,8.88,0,0,0,38,11.11a9.07,9.07,0,0,0-2.14,4.4,16.62,16.62,0,0,0,.24,4.58c.82,2.37,2,3.55,2.84,4.94a3.45,3.45,0,0,1,.61,1.38c.2.2.21,1.59.42,2.19s1,.78,1,1c.2.2-.32,58.55-.5,60.15-.18,1.39-.37,2.59-.56,3.39a27.41,27.41,0,0,0-1.17,2.79,2.49,2.49,0,0,0-.18,1,32.37,32.37,0,0,0-2,3.6,14.52,14.52,0,0,0-.77,2.79,10.47,10.47,0,0,0,1.46,6.35,9.49,9.49,0,0,0,4.41,3.74,7.78,7.78,0,0,0,4.78.15,10.37,10.37,0,0,0,6.28-8.42,9.69,9.69,0,0,0-.85-5.16c-.4-1-1.21-2-1.62-3a3.47,3.47,0,0,1-.61-1.39c0-.4-.61-1.19-.62-2a19.6,19.6,0,0,1-.64-4.37c-.22-2.59.71-59.55.71-59.75s.19-.2.59-.4.39-.8.39-1.2a8.35,8.35,0,0,1,.58-1.8c.19-.4,1.37-1.8,2.35-3.2a9.85,9.85,0,0,0,1.36-3c.58-2.59.17-3.78-.45-6-.21-1.2-1.62-3.17-3.23-4.55Z" transform="translate(-1.91 -7.23)"/><path class="cls-3" d="M78.3,22.79,70.22,19.3v-.92h7.47Zm-.61,5.11-7.47-3.58V22.07l7.47,3.48Zm0,4.61-7.47-3.58V27.08l7.47,3.59Zm0,4.4-7.47-3.58V31.69l7.47,3.58Zm-3.69,3-3.78-.72V36.09l6.86,3.17ZM84.14,7.23H63.87a1.18,1.18,0,0,0-1.23,1.22v8.7a1.19,1.19,0,0,0,1.23,1.23h3.79V40.19a1.31,1.31,0,0,0,1,1.22l5,.93h.51l5-.93a1.21,1.21,0,0,0,1-1.22V18.38h3.89a1.18,1.18,0,0,0,1.23-1.23V8.45a1.18,1.18,0,0,0-1.23-1.22Z" transform="translate(-1.91 -7.23)"/><polygon class="cls-4" points="66.99 89.9 132.69 89.9 135.15 92.37 135.15 103.89 132.69 106.37 66.99 106.37 64.52 103.89 64.52 92.37 66.99 89.9"/><polygon class="cls-5" points="77.86 67.18 121.16 67.18 124.45 82.82 75.39 82.82 77.86 67.18"/><polygon class="cls-4" points="86.58 40.84 112.76 40.84 114.74 56.48 84.94 56.48 86.58 40.84"/><path class="cls-5" d="M98.21,25.17s3.45-7.57,7.08,0l4.94,15.32h-17Z" transform="translate(-1.91 -7.23)"/></g></svg>