<svg id="tel-fijo" xmlns="http://www.w3.org/2000/svg" viewBox="0 0 511.96 511.96"><defs><style>.cls-1{fill:#fff;}</style></defs><path class="cls-1" d="M437,75C337-25,174.9-25,75,75S-25,337.1,75,437s262.1,100,362,0a255.91,255.91,0,0,0,0-362ZM387.7,356.6h0l-13,12.8a68.06,68.06,0,0,1-64.4,18.4,228.42,228.42,0,0,1-65.9-29.5,314.6,314.6,0,0,1-90.8-89,239.31,239.31,0,0,1-29.2-59.1,68,68,0,0,1,17.1-69.7l15.2-15.2a10.77,10.77,0,0,1,15.3,0h0l48,48a10.77,10.77,0,0,1,0,15.3h0l-28.2,28.2a23,23,0,0,0-2.4,29.9A332.63,332.63,0,0,0,223.1,286a329.74,329.74,0,0,0,44.4,37.3,23.05,23.05,0,0,0,29.5-2.6l27.2-27.6a10.77,10.77,0,0,1,15.3,0h0l48,48.1A10.81,10.81,0,0,1,387.7,356.6Z" transform="translate(-0.04)"/></svg>