<svg id="tel-mobile" xmlns="http://www.w3.org/2000/svg" viewBox="0 0 290.11 511.96"><defs><style>.cls-1{fill:#fff;}</style></defs><path class="cls-1" d="M366.94,0H145.09A34.09,34.09,0,0,0,111,34.13V469.3A42.65,42.65,0,0,0,153.63,512H358.41a42.65,42.65,0,0,0,42.66-42.66V34.13A34.09,34.09,0,0,0,366.94,0ZM239,32h34.13a8.53,8.53,0,1,1,0,17.06H239A8.53,8.53,0,0,1,239,32ZM256,495a17.71,17.71,0,1,1,17.7-17.7A17.66,17.66,0,0,1,256,495ZM384,392.5v51.2H128V68.26H384Z" transform="translate(-110.96)"/></svg>