<svg xmlns="http://www.w3.org/2000/svg" viewBox="0 0 121.28 111.61"><defs><style>.cls-1{fill:#bcbcbc;fill-rule:evenodd;}.cls-2{fill:#ff6262;}.cls-3{fill:#727270;stroke:#fafafa;stroke-miterlimit:10;stroke-width:2px;}</style></defs><title>transparencia</title><g id="Capa_4" data-name="Capa 4"><path class="cls-1" d="M64.41,26.42a3.59,3.59,0,0,0-3.17-3.91,3.56,3.56,0,1,0-.62,7.09,3.56,3.56,0,0,0,3.79-3.18Zm16.5-2.12h0L76.07,23a11.74,11.74,0,0,0-1-3.11l3.29-4a1,1,0,0,0,0-1.26l-3.18-3.79a1,1,0,0,0-1.3-.24L69.4,13.19a14.15,14.15,0,0,0-2.87-1.58l-.44-5a1.18,1.18,0,0,0-1-.9l-5-.44A1.06,1.06,0,0,0,59.06,6l-1.38,5a11.94,11.94,0,0,0-3,.93L50.78,8.72a.91.91,0,0,0-1.31,0l-3.8,3.18a1,1,0,0,0-.23,1.24l2.44,4.35a17.75,17.75,0,0,0-1.45,2.89l-5,.44a1,1,0,0,0-.9.92l-.44,5a.88.88,0,0,0,.73.95l4.83,1.43a9.3,9.3,0,0,0,1.06,3L43.55,36a.92.92,0,0,0,0,1.32l3.18,3.85a1,1,0,0,0,1.29.24L52.33,39a10.92,10.92,0,0,0,2.76,1.37l.49,5.13a1,1,0,0,0,.93.89l5,.44a1.13,1.13,0,0,0,1.13-.72l1.3-4.84c1-.28,2.12-.5,3.09-.86l3.87,3.11a1,1,0,0,0,1.25,0l3.8-3.24a.92.92,0,0,0,.24-1.3l-2.43-4.48a9.25,9.25,0,0,0,1.56-2.74l5-.57a.88.88,0,0,0,.89-.8l.44-5a1,1,0,0,0-.72-1.07ZM60.17,34.65h0a8.63,8.63,0,1,1,9.29-7.78,8.64,8.64,0,0,1-9.29,7.78Z" transform="translate(-9.35 -5.27)"/><path class="cls-1" d="M91.81,16.74a1.81,1.81,0,1,0-2.35.88,1.82,1.82,0,0,0,2.35-.88Zm8.26,1.77h0L98,17.07a5.82,5.82,0,0,0,0-1.67l2.25-1.34a.5.5,0,0,0,.21-.61l-.88-2.35a.53.53,0,0,0-.58-.33l-2.55.47A8.25,8.25,0,0,0,95.33,10L96,7.54a.62.62,0,0,0-.32-.6L93.33,5.89a.54.54,0,0,0-.63.16L91.2,8.2a5.6,5.6,0,0,0-1.58-.06L88.28,6a.48.48,0,0,0-.64-.22l-2.35.88a.5.5,0,0,0-.32.55l.43,2.5a9.08,9.08,0,0,0-1.18,1.14l-2.46-.64a.49.49,0,0,0-.59.3l-1.06,2.34a.44.44,0,0,0,.19.57l2.07,1.5a4.83,4.83,0,0,0,0,1.61L80.2,17.8a.46.46,0,0,0-.21.63l.86,2.39a.54.54,0,0,0,.58.33l2.47-.45A5.6,5.6,0,0,0,85,21.83l-.63,2.53a.52.52,0,0,0,.29.59L87,26a.59.59,0,0,0,.67-.15l1.44-2.1c.54,0,1.1.12,1.62.11L92,26a.54.54,0,0,0,.59.24L95,25.33a.46.46,0,0,0,.33-.58l-.4-2.56a4.82,4.82,0,0,0,1.21-1.05l2.49.57a.44.44,0,0,0,.56-.23l1.06-2.34a.48.48,0,0,0-.16-.63ZM88.39,20h0a4.38,4.38,0,1,1,5.76-2.16A4.39,4.39,0,0,1,88.39,20Z" transform="translate(-9.35 -5.27)"/><path class="cls-2" d="M103.35,85.47l0,0-.16-.09-.22-.13v0L71.6,67l-.14,0c-2.09.33-3.93.7-5.32,1l-.17,0-.08.15a45.7,45.7,0,0,1-7.58,9.44,6.1,6.1,0,0,1-4.54,1.65A6.07,6.07,0,0,1,50,68.85c2-1.87,5.11-5.53,5.95-7.82a6.1,6.1,0,0,1,3.31-3.5L61,56.77l-15.23.12a5.29,5.29,0,0,0-.9.08c-.49,0-1,0-1.46.08-6.69-5.2-8.62-5.83-15-11.55a4.48,4.48,0,0,0-6.66.76L10.16,62.81a4.48,4.48,0,0,0,1,6.2C19.37,75,23.39,77.82,28,81.85c.2.18.44.38.66.55a18.14,18.14,0,0,0,8.41,8.77,5.28,5.28,0,0,0,.55.37l2,1.2a6.28,6.28,0,0,1,1.16-1.43l.82-.75a6.39,6.39,0,0,1,3.75-1.75,6.08,6.08,0,0,1,5,2,5.91,5.91,0,0,1,1.05,1.6l.22.48L54,90.9a6.06,6.06,0,0,1,8.54.82,5.83,5.83,0,0,1,1.12,2.06l.14.44.42-.2a6.08,6.08,0,0,1,7.57,1.92,6.32,6.32,0,0,1,.65,6l0,.11.37.15a6.06,6.06,0,0,1,3.81,6.53,6.46,6.46,0,0,1-2,3.65l-.75.73,1.85,1.09a5.07,5.07,0,0,0,2.31.72,5.17,5.17,0,0,0,5.07-7.16l1.42.89a5.15,5.15,0,0,0,7.06-7.17l.81.44a5.06,5.06,0,0,0,2.17.63A5.16,5.16,0,0,0,99.49,95a5.47,5.47,0,0,0,1.13.2,5.17,5.17,0,0,0,5-3.1A5.3,5.3,0,0,0,103.35,85.47Z" transform="translate(-9.35 -5.27)"/><path class="cls-3" d="M74.29,104.22A5.15,5.15,0,0,0,71,102.67a5.16,5.16,0,0,0-7.51-7L63,96a5.15,5.15,0,0,0-8.42-4.42l-3.55,2.92a5.15,5.15,0,0,0-8.62-3.47l-1,.93a5.16,5.16,0,0,0,3.18,9,4.85,4.85,0,0,0,1,0,5.15,5.15,0,0,0,7.84,5,5.16,5.16,0,0,0,8.46,5l.54-.5a5.16,5.16,0,0,0,8.75,4l3-2.92A5.15,5.15,0,0,0,74.29,104.22Z" transform="translate(-9.35 -5.27)"/><path class="cls-3" d="M114.91,45.28l13.72,16.51a4.31,4.31,0,0,1-.94,6.36c-9.26,6.11-19.75,13.71-20.91,14.53a12.24,12.24,0,0,1-2.61,1.74c0,.07-32.39-18.41-32.39-18.41h0a64.34,64.34,0,0,0-6.42,1.28A44.4,44.4,0,0,1,57.68,77a5.16,5.16,0,1,1-7.09-7.49c1.89-1.8,5.24-5.6,6.17-8.17a5.18,5.18,0,0,1,2.82-3A50.92,50.92,0,0,1,70.24,55.8h0c2.3-.35,4.18-.57,4.89-.65a5.46,5.46,0,0,1,1,0l13.66,1.13a5,5,0,0,1,1.45.33,15.77,15.77,0,0,1,1.91.39c1.49-.9,6.76-5,15.73-12.3A4.32,4.32,0,0,1,114.91,45.28Z" transform="translate(-9.35 -5.27)"/></g></svg>